<?xml version="1.0" encoding="UTF-8"?>
<!DOCTYPE svg PUBLIC "-//W3C//DTD SVG 1.1//EN" "http://www.w3.org/Graphics/SVG/1.1/DTD/svg11.dtd">
<svg xmlns="http://www.w3.org/2000/svg" version="1.1" width="512px" height="512px" style="shape-rendering:geometricPrecision; text-rendering:geometricPrecision; image-rendering:optimizeQuality; fill-rule:evenodd; clip-rule:evenodd" xmlns:xlink="http://www.w3.org/1999/xlink">
<g><path style="opacity:0.997" fill="#b6de64" d="M 473.5,153.5 C 440.049,158.727 414.383,175.727 396.5,204.5C 268.833,204.5 141.167,204.5 13.5,204.5C 30.3695,176.498 55.0362,159.665 87.5,154C 216.166,153.5 344.833,153.333 473.5,153.5 Z"/></g>
<g><path style="opacity:0.987" fill="#dcf3a3" d="M 473.5,153.5 C 479.842,153.334 486.175,153.5 492.5,154C 508.589,160.686 514.089,172.52 509,189.5C 506.5,196 502,200.5 495.5,203C 487.549,204.595 479.549,205.929 471.5,207C 448.676,215.141 436.343,231.308 434.5,255.5C 436.343,279.692 448.676,295.859 471.5,304C 479.549,305.071 487.549,306.405 495.5,308C 508.249,314.673 513.082,325.173 510,339.5C 507.5,348.667 501.667,354.5 492.5,357C 486.175,357.5 479.842,357.666 473.5,357.5C 440.043,352.271 414.376,335.271 396.5,306.5C 386.171,287.846 381.838,267.846 383.5,246.5C 384.613,231.495 388.946,217.495 396.5,204.5C 414.383,175.727 440.049,158.727 473.5,153.5 Z"/></g>
<g><path style="opacity:1" fill="#a9cc54" d="M 13.5,204.5 C 141.167,204.5 268.833,204.5 396.5,204.5C 388.946,217.495 384.613,231.495 383.5,246.5C 382.523,249.287 382.19,252.287 382.5,255.5C 255.167,255.5 127.833,255.5 0.5,255.5C -0.0100335,237.206 4.3233,220.206 13.5,204.5 Z"/></g>
<g><path style="opacity:0.998" fill="#b5dd64" d="M 383.5,246.5 C 381.838,267.846 386.171,287.846 396.5,306.5C 268.999,306.167 141.666,306.5 14.5,307.5C 4.55266,291.72 -0.114002,274.387 0.5,255.5C 127.833,255.5 255.167,255.5 382.5,255.5C 382.19,252.287 382.523,249.287 383.5,246.5 Z"/></g>
<g><path style="opacity:1" fill="#a9cc54" d="M 396.5,306.5 C 414.376,335.271 440.043,352.271 473.5,357.5C 344.833,357.667 216.166,357.5 87.5,357C 55.3664,351.652 31.033,335.152 14.5,307.5C 141.666,306.5 268.999,306.167 396.5,306.5 Z"/></g>
</svg>
